<svg t="1608279036581" fill="currentColor" viewBox="0 0 1024 1024" version="1.1" xmlns="http://www.w3.org/2000/svg" p-id="1224" width="1em" height="1em"><path d="M899.74474453 980.04685333H124.23598933a105.46394987 105.46394987 0 0 1-105.348352-105.348352V263.03070933A105.48321707 105.48321707 0 0 1 124.23598933 157.6630912h775.5087552a105.48321707 105.48321707 0 0 1 105.36761814 105.36761813v611.667792a105.46394987 105.46394987 0 0 1-105.36761814 105.348352zM124.23598933 215.46211307a47.60712853 47.60712853 0 0 0-47.54933013 47.56859626v611.667792A47.60712853 47.60712853 0 0 0 124.23598933 922.2478304h775.5087552a47.60712853 47.60712853 0 0 0 47.56859627-47.54932907V263.03070933a47.62639467 47.62639467 0 0 0-47.56859627-47.56859626z" p-id="1225"></path><path d="M677.54603413 314.83789973a28.89951147 28.89951147 0 0 1-28.89951146-28.89951146V72.29393387a28.89951147 28.89951147 0 0 1 57.79902293 0v213.6444544a28.89951147 28.89951147 0 0 1-28.89951147 28.89951146zM366.4138944 319.65448533a28.89951147 28.89951147 0 0 1-28.89951147-28.89951146V77.11051947a28.89951147 28.89951147 0 1 1 57.79902294 0v213.6444544a28.89951147 28.89951147 0 0 1-28.89951147 28.89951146z" p-id="1226"></path><path d="M518.96478187 468.58330027m-60.6311744 0a60.6311744 60.6311744 0 1 0 121.26234986 0 60.6311744 60.6311744 0 1 0-121.26234986 0Z" p-id="1227"></path><path d="M518.96478187 716.2135808m-60.6311744 0a60.6311744 60.6311744 0 1 0 121.26234986 0 60.6311744 60.6311744 0 1 0-121.26234986 0Z" p-id="1228"></path><path d="M758.50319893 468.58330027m-60.6311744 0a60.6311744 60.6311744 0 1 0 121.26234987 0 60.6311744 60.6311744 0 1 0-121.26234987 0Z" p-id="1229"></path><path d="M758.50319893 716.2135808m-60.6311744 0a60.6311744 60.6311744 0 1 0 121.26234987 0 60.6311744 60.6311744 0 1 0-121.26234987 0Z" p-id="1230"></path><path d="M275.1299712 468.58330027m-60.6311744 0a60.6311744 60.6311744 0 1 0 121.26234987 0 60.6311744 60.6311744 0 1 0-121.26234987 0Z" p-id="1231"></path><path d="M275.1299712 716.2135808m-60.6311744 0a60.6311744 60.6311744 0 1 0 121.26234987 0 60.6311744 60.6311744 0 1 0-121.26234987 0Z" p-id="1232"></path></svg>