<svg t="1608279217627" fill="currentColor" viewBox="0 0 1024 1024" version="1.1" xmlns="http://www.w3.org/2000/svg" p-id="1518" width="1em" height="1em"><path d="M922.25536 5.18826667c-3.05834667-1.23790222-23.73859555-1.45635555-26.86976-1.89326222C894.73024 3.22218667 876.08888889 2.93091555 876.08888889 2.93091555L876.08888889 2.56682667C876.08888889 2.42119111 906.81799111 2.27555555 904.70627555 2.27555555L40.50488889 2.27555555l0 0C30.89294222 2.27555555 21.13536 5.98926222 13.70794667 13.41667555c-14.78200889 14.78200889-14.05383111 38.73905778 0.72817778 53.52106667L293.54666667 345.39292445l0 640.5779911c0 3.13116445 0.36408889 5.97105778 1.09226666 8.8837689 0.29127111 0.72817778-0.21845333 1.45635555 0.07281778 2.11171555 4.73315555 14.63637333 17.76753778 25.41340445 34.00590222 25.41340445 10.77703111 0 20.17052445-4.87879111 26.79694222-12.37902223 0.29127111-0.21845333 0.58254222-0.29127111 0.80099556-0.50972444l287.04768-287.12049778c0.21845333-0.21845333 1.01944889-0.50972445 1.23790222-0.72817778 7.50023111-6.69923555 13.1072-16.09272889 13.1072-26.94257777L657.70837333 345.39292445l277.65418667-278.38236445c0.21845333-0.21845333-0.07281778-0.50972445 0.14563555-0.72817778 7.50023111-6.69923555 12.16056889-16.09272889 12.1605689-26.94257777C947.59594667 23.17425778 936.81891555 9.92142222 922.25536 5.18826667zM584.81777778 675.18464l-218.45333333 218.45333333L366.36444445 366.36444445l218.45333333 0L584.81777778 675.18464zM600.32796445 293.54666667L348.01436445 293.54666667l-218.45333334-218.45333334 689.22026667 0L600.32796445 293.54666667z" p-id="1519"></path></svg>