<svg t="1597118504199" fill="currentColor" viewBox="0 0 1024 1024" version="1.1" xmlns="http://www.w3.org/2000/svg" p-id="1560" width="128" height="128"><path d="M218.91653571 175.42004978a25.89076502 25.89076502 0 0 0 16.05227376-5.69596919 445.32116502 445.32116502 0 0 1 51.78153128-36.76488651 25.89076502 25.89076502 0 0 0-26.40858075-44.53211614A498.13832651 498.13832651 0 0 0 201.31081482 129.33448651a25.89076502 25.89076502 0 0 0 16.05227496 46.08556327zM356.65540741 551.35396386a25.89076502 25.89076502 0 0 0 0 51.78153006h129.45382757v103.56306253a25.89076502 25.89076502 0 0 0 51.78153004 0v-103.56306253H667.34459259a25.89076502 25.89076502 0 0 0 0-51.78153006h-129.45382757v-77.6722963H667.34459259a25.89076502 25.89076502 0 0 0 0-51.78153126H356.65540741a25.89076502 25.89076502 0 0 0 0 51.78153126h129.45382757v77.6722963zM593.29700386 390.31340206l54.88842191-54.8884219a25.89076502 25.89076502 0 0 0-36.76488652-36.76488772l-54.3706074 54.88842311a25.89076502 25.89076502 0 0 0 36.76488651 36.76488651zM466.95006815 390.31340206a25.89076502 25.89076502 0 0 0 0-36.76488651l-54.88842313-54.88842311a25.89076502 25.89076502 0 0 0-36.7648865 36.76488772l54.88842312 54.8884219a25.89076502 25.89076502 0 0 0 36.76488651 0z" p-id="1561"></path><path d="M1003.92454281 512A492.44235852 492.44235852 0 0 0 360.79792947 45.96622222a25.89076502 25.89076502 0 0 0 16.05227498 51.78153127 440.66082725 440.66082725 0 0 1 575.2928083 414.25224651 440.66082725 440.66082725 0 0 1-3.10689185 51.78153127 25.89076502 25.89076502 0 0 0 22.78387318 28.47984117h3.10689184a25.89076502 25.89076502 0 0 0 25.89076503-22.78387319A496.58488059 496.58488059 0 0 0 1003.92454281 512zM559.12119349 949.55393539a448.94587259 448.94587259 0 0 1-47.12119349 2.58907736A440.14301275 440.14301275 0 0 1 143.83331555 270.69806577a25.89076502 25.89076502 0 0 0-43.49648592-28.47984116A491.92454281 491.92454281 0 0 0 512 1003.92454281a498.13832651 498.13832651 0 0 0 51.78153127-3.10689186 25.89076502 25.89076502 0 1 0-5.69596921-51.78153005zM643.52508799 744.49907317h302.40414106a25.89076502 25.89076502 0 0 0 18.1235354-44.01430042l-69.38725096-69.38725216a25.89076502 25.89076502 0 0 0-36.76488772 36.76488772l25.37295053 25.37294931h-239.74848831a25.89076502 25.89076502 0 0 0 0 51.78153127zM945.92922905 799.3874963h-302.40414106a25.89076502 25.89076502 0 0 0-18.1235354 44.01430164l69.38725096 69.38725095a25.89076502 25.89076502 0 1 0 36.76488772-36.76488651l-25.37295052-25.37295053h240.2663028a25.89076502 25.89076502 0 0 0 0-51.78153126z" p-id="1562"></path></svg>