<svg t="1607391147476" class="icon" viewBox="0 0 1024 1024" version="1.1" xmlns="http://www.w3.org/2000/svg" p-id="802" width="128" height="128"><path d="M435.80302222 1021.72444445c-6.51946667 0-13.08444445-1.42222222-19.30808889-4.34631112-16.06542222-7.52071111-26.04373333-23.22204445-26.04373333-40.97137778V492.15715555L146.80746667 70.144c-8.05546667-13.94915555-8.05546667-31.27751111-0.01137778-45.23804445C154.85155555 10.94542222 169.87022222 2.27555555 185.99253333 2.27555555h652.02631112c16.11093333 0 31.1296 8.66986667 39.18506666 22.61902223 8.05546667 13.94915555 8.05546667 31.28888889 0.01137778 45.23804444L633.5488 492.15715555V849.23733333c0 13.45991111-5.92782222 26.12337778-16.27022222 34.74773334L464.65706667 1011.17724445c-8.36266667 6.9632-18.5344 10.5472-28.85404445 10.5472zM211.47875555 62.23644445l234.91697778 406.8807111c2.63964445 4.56248889 4.01635555 9.728 4.01635556 14.99591112v460.87964444l123.17582222-102.65031111V484.11306667c0-5.26791111 1.38808889-10.43342222 4.01635556-14.99591112L812.52124445 62.23644445H211.47875555z m626.5400889 0h0.1479111-0.1479111z" p-id="803"></path></svg>