<svg t="1596610535758" class="icon" viewBox="0 0 1024 1024" version="1.1" xmlns="http://www.w3.org/2000/svg" p-id="1499" width="128" height="128"><path d="M327.52829653 371.2189632c-43.69066667 0-77.67229653 33.98162987-77.67229653 77.67229653s33.98162987 77.67229653 77.67229653 77.67229547 77.67229653-33.98162987 77.67229654-77.67229547-36.40888853-77.67229653-77.67229654-77.67229653z" stroke="#979797" p-id="1500"></path><path d="M698.8989632 213.44711147c-143.20829653 70.3905184-237.87140693 63.10874027-385.93422293 0-259.71674027 0-407.7795552 686.91437013-213.59881387 686.91437013 165.05362987 0 186.8989632-201.4625184 410.20681387-201.4625184 182.0444448 0 288.84385173 199.03525973 410.20681493 199.03525867 189.32622187 0-7.28177813-684.48711147-220.880592-684.4871104z m-371.37066667 364.08888853c-70.3905184 0-126.2174816-55.8269632-126.2174816-126.2174816s55.8269632-126.2174816 126.2174816-126.2174816 126.2174816 55.8269632 126.2174816 126.2174816-58.25422187 126.2174816-126.2174816 126.2174816z m288.84385174-118.93570347c-19.4180736-4.8545184-29.12711147-24.27259307-21.84533334-43.69066666 4.8545184-16.99081493 24.27259307-29.12711147 43.69066667-21.84533334 19.4180736 4.8545184 29.12711147 24.27259307 21.84533333 43.69066667-4.8545184 16.99081493-24.27259307 26.69985173-43.69066666 21.84533333z m84.9540736 53.39970347c-4.8545184 16.99081493-24.27259307 29.12711147-43.69066667 21.84533333-19.4180736-4.8545184-29.12711147-24.27259307-21.84533333-43.69066666 4.8545184-16.99081493 24.27259307-29.12711147 43.69066666-21.84533334 16.99081493 7.28177813 29.12711147 26.69985173 21.84533334 43.69066667z m4.8545184-82.52681493c-19.4180736-4.8545184-29.12711147-24.27259307-21.84533334-43.69066667 4.8545184-16.99081493 24.27259307-29.12711147 43.69066667-21.84533333 19.4180736 4.8545184 29.12711147 24.27259307 21.84533333 43.69066666-7.28177813 16.99081493-26.69985173 26.69985173-43.69066666 21.84533334z m87.38133333 58.25422186c-4.8545184 16.99081493-24.27259307 29.12711147-43.69066667 21.84533334-19.4180736-4.8545184-29.12711147-24.27259307-21.84533333-43.69066667 4.8545184-16.99081493 24.27259307-29.12711147 43.69066667-21.84533333 16.99081493 4.8545184 26.69985173 24.27259307 21.84533333 43.69066666z" stroke="#979797" p-id="1501"></path></svg>