<svg t="1607497468077" class="icon" viewBox="0 0 1024 1024" version="1.1" xmlns="http://www.w3.org/2000/svg" p-id="1150" width="128" height="128"><path d="M511.885612 0.228776C229.576408 0.228776 0 229.919571 0 512.114388s229.576408 511.885612 511.885612 511.885612S1023.771224 794.423592 1023.771224 512.114388 794.194817 0.228776 511.885612 0.228776z m0 996.546917c-267.210009 0-484.546917-217.336908-484.546917-484.546917s217.336908-484.546917 484.546917-484.546917 484.546917 217.336908 484.546917 484.546917-217.336908 484.546917-484.546917 484.546917z m0-814.78463c-181.991063 0-330.123324 148.132261-330.123324 330.123325s148.132261 330.123324 330.123324 330.123324 330.123324-148.132261 330.123325-330.123324-148.132261-330.123324-330.123325-330.123325z m0 605.683647c-151.90706 0-275.560322-123.653262-275.560322-275.560322s123.653262-275.560322 275.560322-275.560322 275.560322 123.653262 275.560322 275.560322-123.653262 275.560322-275.560322 275.560322zM490.723861 688.042895c-80.872207-9.608579-145.958892-75.267203-154.995532-156.253798-1.60143-14.984808-15.099196-25.737265-30.084004-24.135835-14.984808 1.715818-25.737265 15.213584-24.135835 30.084003 11.896336 107.638963 95.285076 191.71403 202.809651 204.411082 1.143878 0.114388 2.173369 0.228776 3.20286 0.228775 13.612154 0 25.394102-10.180518 27.109919-24.135835 1.715818-14.756032-8.922252-28.368186-23.907059-30.198392z m47.814119-406.191242c-14.984808-1.715818-28.482574 9.03664-30.198391 24.021448s9.03664 28.482574 24.021448 30.198391c81.672922 9.379803 145.50134 72.865058 155.453083 154.423593 1.715818 13.840929 13.497766 24.021448 27.109919 24.021448 1.143878 0 2.173369-0.114388 3.317248-0.228776 14.984808-1.830206 25.622878-15.442359 23.792672-30.427167-13.040214-106.609473-96.65773-189.655049-203.495979-202.008937z m-26.652368 132.575514c-53.876676 0-97.801609 43.810545-97.801608 97.801609s43.810545 97.801609 97.801608 97.801608S609.687221 566.219839 609.687221 512.228776s-43.924933-97.801609-97.801609-97.801609z m0 140.925827c-23.792672 0-43.124218-19.331546-43.124218-43.124218s19.331546-43.124218 43.124218-43.124218 43.124218 19.331546 43.124218 43.124218-19.331546 43.124218-43.124218 43.124218z" p-id="1151"></path></svg>