<svg t="1608279341542" fill="currentColor" viewBox="0 0 1024 1024" version="1.1" xmlns="http://www.w3.org/2000/svg" p-id="1807" width="1em" height="1em"><path d="M358.68547869 354.97839161H132.8179712a119.42115555 119.42115555 0 0 1-119.15636281-119.15636281V117.72483243a119.42115555 119.42115555 0 0 1 119.15636281-119.15636395h225.86750749a119.42115555 119.42115555 0 0 1 119.15636394 119.15636395v118.09719637a119.42115555 119.42115555 0 0 1-119.15636394 119.15636281zM132.8179712 78.00604445a39.71878798 39.71878798 0 0 0-39.71878685 39.71878798v118.09719637a39.71878798 39.71878798 0 0 0 39.71878685 39.71878685h225.86750749a39.71878798 39.71878798 0 0 0 39.71878798-39.71878685V117.72483243a39.71878798 39.71878798 0 0 0-39.71878798-39.71878798zM361.86298141 1025.43153152H135.99547506a119.42115555 119.42115555 0 0 1-119.15636395-119.15636395v-360.1170102a119.42115555 119.42115555 0 0 1 119.15636395-119.15636395h225.86750635a119.42115555 119.42115555 0 0 1 119.15636394 119.15636395v360.1170102a119.42115555 119.42115555 0 0 1-119.15636394 119.15636395zM135.99547506 506.43936939a39.71878798 39.71878798 0 0 0-39.71878799 39.71878798v360.1170102a39.71878798 39.71878798 0 0 0 39.71878799 39.71878798h225.86750635a39.71878798 39.71878798 0 0 0 39.71878798-39.71878798v-360.1170102a39.71878798 39.71878798 0 0 0-39.71878798-39.71878798zM888.00452494 1025.43153152h-225.86750635a119.42115555 119.42115555 0 0 1-119.15636394-119.15636395v-118.09719637a119.42115555 119.42115555 0 0 1 119.15636394-119.15636281h225.86750635a119.42115555 119.42115555 0 0 1 119.15636395 119.15636281v118.09719637a119.42115555 119.42115555 0 0 1-119.15636395 119.15636395z m-225.86750635-276.97234717a39.71878798 39.71878798 0 0 0-39.71878798 39.71878685v118.09719637a39.71878798 39.71878798 0 0 0 39.71878798 39.71878798h225.86750635a39.71878798 39.71878798 0 0 0 39.71878799-39.71878798v-118.09719637a39.71878798 39.71878798 0 0 0-39.71878799-39.71878685zM891.1820288 596.99820658h-225.86750749a119.42115555 119.42115555 0 0 1-119.15636394-119.15636395V117.72483243a119.42115555 119.42115555 0 0 1 119.15636394-119.15636395h225.86750749a119.42115555 119.42115555 0 0 1 119.15636281 119.15636395v360.1170102a119.42115555 119.42115555 0 0 1-119.15636281 119.15636395z m-225.86750749-518.99216213a39.71878798 39.71878798 0 0 0-39.71878798 39.71878798v360.1170102a39.71878798 39.71878798 0 0 0 39.71878798 39.71878798h225.86750749a39.71878798 39.71878798 0 0 0 39.71878685-39.71878798V117.72483243a39.71878798 39.71878798 0 0 0-39.71878685-39.71878798z" p-id="1808"></path></svg>