<svg t="1596602247903" class="icon" viewBox="0 0 1024 1024" version="1.1" xmlns="http://www.w3.org/2000/svg" p-id="1468" width="128" height="128"><path d="M912.49777778 948.90666667H111.50222222c-60.07466667 0-109.22666667-49.152-109.22666667-109.22666667V184.32c0-60.07466667 49.152-109.22666667 109.22666667-109.22666667h800.99555556c60.07466667 0 109.22666667 49.152 109.22666667 109.22666667v72.81777778c0 20.02488889-16.384 36.40888889-36.4088889 36.40888889s-36.40888889-16.384-36.40888888-36.40888889v-72.81777778c0-20.02488889-16.384-36.40888889-36.40888889-36.40888889H111.50222222c-20.02488889 0-36.40888889 16.384-36.40888889 36.40888889v655.36c0 20.02488889 16.384 36.40888889 36.40888889 36.40888889h800.99555556c20.02488889 0 36.40888889-16.384 36.40888889-36.40888889v-72.81777778c0-20.02488889 16.384-36.40888889 36.40888888-36.40888889s36.40888889 16.384 36.4088889 36.40888889v72.81777778c0 60.07466667-49.152 109.22666667-109.22666667 109.22666667z m-109.22666667-400.49777778h-36.40888889c-20.02488889 0-36.40888889-16.384-36.40888889-36.40888889s16.384-36.40888889 36.40888889-36.40888889h36.40888889c20.02488889 0 36.40888889 16.384 36.40888889 36.40888889s-16.384 36.40888889-36.40888889 36.40888889z m182.04444444 109.22666666H694.04444445c-60.07466667 0-109.22666667-49.152-109.22666667-109.22666666v-72.81777778c0-60.07466667 49.152-109.22666667 109.22666667-109.22666666h291.2711111c20.02488889 0 36.40888889 16.384 36.4088889 36.40888888v218.45333334c0 20.02488889-16.384 36.40888889-36.4088889 36.40888888zM694.04444445 439.18222222c-20.02488889 0-36.40888889 16.384-36.4088889 36.40888889v72.81777778c0 20.02488889 16.384 36.40888889 36.4088889 36.40888889h254.86222222V439.18222222H694.04444445z" stroke="#979797" p-id="1469"></path></svg>