<svg t="1607497454479" class="icon" viewBox="0 0 1024 1024" version="1.1" xmlns="http://www.w3.org/2000/svg" p-id="1006" width="128" height="128"><path d="M73.95555555 147.91111111c-40.21589333 0-72.81777778-32.60188445-72.81777777-72.81777778 0-40.21589333 32.60188445-72.81777778 72.81777777-72.81777778 40.21589333 0 72.81777778 32.60188445 72.81777778 72.81777778 0 40.21589333-32.60188445 72.81777778-72.81777778 72.81777778z m0 436.90666667c-40.21589333 0-72.81777778-32.60188445-72.81777777-72.81777778 0-40.21589333 32.60188445-72.81777778 72.81777777-72.81777778 40.21589333 0 72.81777778 32.60188445 72.81777778 72.81777778 0 40.21589333-32.60188445 72.81777778-72.81777778 72.81777778z m0 436.90666667c-40.21589333 0-72.81777778-32.60188445-72.81777777-72.81777778 0-40.21589333 32.60188445-72.81777778 72.81777777-72.81777778 40.21589333 0 72.81777778 32.60188445 72.81777778 72.81777778 0 40.21589333-32.60188445 72.81777778-72.81777778 72.81777778zM257.13777778 29.58222222h719.07555555c25.13464889 0 45.51111111 20.37646222 45.51111112 45.51111111s-20.37646222 45.51111111-45.51111112 45.51111112H257.13777778c-25.13464889 0-45.51111111-20.37646222-45.51111111-45.51111112s20.37646222-45.51111111 45.51111111-45.51111111z m0 436.90666667h719.07555555c25.13464889 0 45.51111111 20.37646222 45.51111112 45.51111111s-20.37646222 45.51111111-45.51111112 45.51111111H257.13777778c-25.13464889 0-45.51111111-20.37646222-45.51111111-45.51111111s20.37646222-45.51111111 45.51111111-45.51111111z m0 436.90666666h719.07555555c25.13464889 0 45.51111111 20.37646222 45.51111112 45.51111112s-20.37646222 45.51111111-45.51111112 45.51111111H257.13777778c-25.13464889 0-45.51111111-20.37646222-45.51111111-45.51111111s20.37646222-45.51111111 45.51111111-45.51111112z" p-id="1007"></path></svg>