<svg t="1589968309165" class="icon" viewBox="0 0 1024 1024" version="1.1" xmlns="http://www.w3.org/2000/svg" p-id="5719" width="128" height="128"><path d="M832 403.498667a21.333333 21.333333 0 0 0 21.333333-21.333334V276.736A106.24 106.24 0 0 0 747.136 170.666667H276.864A106.24 106.24 0 0 0 170.666667 276.736v342.528A106.24 106.24 0 0 0 276.864 725.333333h470.272A106.24 106.24 0 0 0 853.333333 619.264V512a21.333333 21.333333 0 0 0-42.666666 0v107.264A63.573333 63.573333 0 0 1 747.136 682.666667H276.864A63.573333 63.573333 0 0 1 213.333333 619.264V276.736A63.573333 63.573333 0 0 1 276.864 213.333333h470.272A63.573333 63.573333 0 0 1 810.666667 276.736v105.429333a21.333333 21.333333 0 0 0 21.333333 21.333334M792.874667 810.666667H232.874667a21.333333 21.333333 0 0 0 0 42.666666h560a21.333333 21.333333 0 0 0 0-42.666666" p-id="5720"></path></svg>