<svg t="1608279285010" fill="currentColor" viewBox="0 0 1024 1024" version="1.1" xmlns="http://www.w3.org/2000/svg" p-id="1662" width="1em" height="1em"><path d="M945.02305185 9.80005925H81.52557037c-39.68568889 0-71.96823703 32.16118518-71.96823704 71.96823705V945.26577778c0 39.68568889 32.16118518 71.96823703 71.96823704 71.96823704h863.49748148c39.68568889 0 71.96823703-32.16118518 71.96823704-71.96823704V81.7682963c0-39.68568889-32.28254815-71.96823703-71.96823704-71.96823705z m-22.45214815 854.51662223c0 32.28254815-26.2144 58.49694815-58.49694815 58.49694815H162.47466667c-32.28254815 0-58.49694815-26.2144-58.49694815-58.49694815V162.71739259c0-32.28254815 26.2144-58.49694815 58.49694815-58.49694814h701.59928888c32.28254815 0 58.49694815 26.2144 58.49694815 58.49694814v701.59928889z" p-id="1663"></path><path d="M225.46204445 657.39282963h143.93647407v215.90471112H225.46204445zM441.24539259 657.39282963h143.93647408v215.90471112H441.24539259zM657.1501037 657.39282963h143.93647408v215.90471112H657.1501037zM153.49380741 153.73653333h719.56100741V441.60948148H153.49380741z" p-id="1664"></path></svg>