<svg t="1608279556830" fill="currentColor" viewBox="0 0 1024 1024" version="1.1" xmlns="http://www.w3.org/2000/svg" p-id="1951" width="1em" height="1em"><path d="M887.12533333 425.43786667l-35.29386666-35.36213334V231.08266667a55.56906667 55.56906667 0 0 0-111.13813334 0v47.58186666l-213.87946666-214.35733333a20.84864 20.84864 0 0 0-29.55946667 0l-360.31146667 361.13066667L5.05173333 557.6704c-12.56106667 12.56106667-3.61813333 34.06506667 14.1312 34.06506667h117.76v299.55413333c0 32.9728 26.76053333 59.73333333 59.73333334 59.73333333h202.82026666v-272.384c0-62.12266667 50.3808-112.50346667 112.57173334-112.50346666 31.06133333 0 59.1872 12.62933333 79.53066666 32.9728s32.9728 48.46933333 32.9728 79.53066666v272.384h202.82026667c32.9728 0 59.73333333-26.76053333 59.73333333-59.73333333V591.73546667h117.76c17.8176 0 26.69226667-21.504 14.1312-34.06506667l-131.8912-132.23253333z" p-id="1952"></path></svg>