<svg t="1596599831840" class="icon" viewBox="0 0 1024 1024" version="1.1" xmlns="http://www.w3.org/2000/svg" p-id="1438" width="130" height="130"><path d="M962.14626304 641.74804082h-121.27469909a35.21732494 35.21732494 0 0 0 0-7.41417415 172.90912313 172.90912313 0 0 0-112.27177416-130.01283243 39.98357959 39.98357959 0 0 0-10.85646848-1.58875193H551.71878798v-48.45692018h73.08256939a39.71878798 39.71878798 0 0 0 34.42295012-19.85939456l113.06614897-195.68122766a39.45399637 39.45399637 0 0 0 0-39.71878798L659.22430749 3.59951474a39.18920363 39.18920363 0 0 0-34.42295012-19.85939343h-225.60271474a39.18920363 39.18920363 0 0 0-34.42295012 19.85939343l-113.06614897 195.41643719a39.45399637 39.45399637 0 0 0 0 39.71878798l113.06614897 195.68122766a39.71878798 39.71878798 0 0 0 34.42295012 19.85939456h73.08256939v48.45692018H300.16646485c-89.49966848 5.56063061-113.86052494 119.95073991-116.24365283 132.39596032a47.39775374 47.39775374 0 0 0 0 6.09021383H63.17769728a39.71878798 39.71878798 0 0 0-39.71878798 39.71878799v319.60384625A39.71878798 39.71878798 0 0 0 63.17769728 1041.58383787H382.25195918a39.71878798 39.71878798 0 0 0 39.71878799-39.71878685V681.4668288a39.71878798 39.71878798 0 0 0-39.71878799-39.71878798h-118.36198798c6.35500658-23.83127325 21.97772971-58.51901383 38.3948288-59.57818255h407.2499712a95.85467506 95.85467506 0 0 1 50.04567325 59.57818255H641.74804082a39.71878798 39.71878798 0 0 0-39.71878799 39.71878798v319.0742619A39.71878798 39.71878798 0 0 0 641.74804082 1041.58383787H962.14626304a39.71878798 39.71878798 0 0 0 39.71878798-39.71878685V681.4668288a39.71878798 39.71878798 0 0 0-39.71878798-39.71878798z m-628.88080839-423.66707143l90.02925284-155.69764808h180.05850453l90.02925283 155.69764808-90.02925283 155.96244082H421.97074717z m10.59167687 741.41737415h-238.31272789v-238.31272789h236.98876757z m578.57034354 0h-240.96064626v-238.31272789h239.63668594z" stroke="#979797" p-id="1439"></path><path d="M512 117.98962403a101.15051293 101.15051293 0 1 0 101.15051293 100.88572132A101.15051293 101.15051293 0 0 0 512 117.98962403z m0 122.59865828a21.71293696 21.71293696 0 0 1-21.71293696-21.71293696 21.71293696 21.71293696 0 0 1 43.42587392 0 21.71293696 21.71293696 0 0 1-21.71293696 21.71293696z" stroke="#979797" p-id="1440"></path></svg>