<svg t="1597118781219" fill="currentColor" viewBox="0 0 1024 1024" version="1.1" xmlns="http://www.w3.org/2000/svg" p-id="1625" width="128" height="128"><path d="M917.83168 161.82780208h-809.24823703c-54.60726518 0-99.02125511 44.41398992-99.02125512 99.0212551V766.07336297c0 54.59512889 44.41398992 99.03339141 99.02125512 99.0333914h809.2470234c54.59512889 0 99.03339141-44.43826252 99.03339141-99.0333914V260.84905718c0.00121363-54.60726518-44.43826252-99.02125511-99.03217778-99.0212551z m50.48699259 604.24556089c0 27.83823645-22.64996978 50.48820622-50.48820622 50.48820621H108.58344297c-27.83823645 0-50.50034252-22.64996978-50.50034252-50.48820621v-51.15206164h910.23557214v51.15206164z m0-101.51647764H58.08310045V260.84905718c0-27.83823645 22.66210608-50.50034252 50.50034252-50.50034251h809.2470234c27.83823645 0 50.48820622 22.66210608 50.48820622 50.50034251v403.70782815z" p-id="1626"></path><path d="M377.7288723 484.0367597l-54.74319171-160.09595259H275.62135703l77.31791645 216.3137043h46.62765037l77.46476563-216.3137043h-46.33152473zM497.98500503 323.94080711h43.67610312v216.3137043h-43.67610312zM705.298432 327.18726637c-8.06578252-2.16390163-25.37942282-3.24645925-51.93849363-3.24645926h-70.08832474v216.3137043h43.67610312v-81.59717452h28.47781925c19.77245392 0 34.87243378-1.03279882 45.29872592-3.09839644 7.67256652-1.67238163 15.22255645-5.0911763 22.64996978-10.25517037 7.42741333-5.16399408 13.55017482-12.27100918 18.37071171-21.32104533s7.2295917-20.21542875 7.2295917-33.49496416c0-17.21412267-4.18095408-31.25703111-12.54164859-42.12629807-8.36190815-10.87048059-18.73965511-17.92895052-31.13445452-21.17419615z m-6.2708243 80.71122488c-3.29500445 4.82053689-7.84490192 8.36190815-13.64847881 10.62411378-5.80357689 2.26220563-17.31242667 3.39330845-34.52776297 3.39330845h-23.90364917v-61.3829594H648.04788148c15.73956267 0 26.21561363 0.49152 31.42936652 1.47577362 7.08274252 1.27916563 12.93607822 4.47586608 17.55879348 9.59131497 4.62392889 5.11544889 6.9346797 11.60715378 6.9346797 19.47754192 0 6.39461452-1.64810903 12.00158341-4.94311348 16.82090666zM185.84067792 411.82094222h-50.36562962c-13.90698192 0-25.18281482 11.27583289-25.18281482 25.18281481s11.27583289 25.18281482 25.18281482 25.18281482h50.36562962c13.90698192 0 25.18281482-11.27583289 25.18281483-25.18281482s-11.27583289-25.18281482-25.18281483-25.18281481zM890.95221097 411.82094222h-50.36562964c-13.91911822 0-25.18281482 11.27583289-25.18281481 25.18281481s11.26369659 25.18281482 25.18281481 25.18281482h50.36562964c13.91911822 0 25.18281482-11.27583289 25.18281481-25.18281482s-11.26369659-25.18281482-25.18281481-25.18281481z" p-id="1627"></path></svg>